# xmcd
#
# Track frame offsets: 
#        150
#        16730
#        43700
#        61047
#        81650
#        104360
#        132600
#        171190
#        211637
#        236740
#        279495
#
# Disc length: 4740 seconds
#
# Revision: 9
# Processed by: cddbd v1.5.2PL0 Copyright (c) Steve Scherf et al.
# Submitted via: ExactAudioCopy v1.1
#
DISCID=9512820b
DTITLE=Eric Clapton - One More Car, One More Rider - CD 1 (2002)
DYEAR=2002
DGENRE=Blues
TTITLE0=Key To The Highway
TTITLE1=Reptile
TTITLE2=Got You On My Mind
TTITLE3=Tears In Heaven
TTITLE4=Bell Bottom Blues
TTITLE5=Change The World
TTITLE6=My Father's Eyes
TTITLE7=River Of Tears
TTITLE8=Goin' Down Slow
TTITLE9=She's Gone
TTITLE10=DATA
EXTD=YEAR: 2002
EXTT0=
EXTT1=
EXTT2=
EXTT3=
EXTT4=
EXTT5=
EXTT6=
EXTT7=
EXTT8=
EXTT9=
EXTT10=
PLAYORDER=
